<mxfile host="app.diagrams.net" agent="Mozilla/5.0 (Windows NT 10.0; Win64; x64) AppleWebKit/537.36 (KHTML, like Gecko) Chrome/129.0.0.0 Safari/537.36" version="24.7.17">
  <diagram name="Halaman-1" id="aJokquTAslE05Yw1g0Z0">
    <mxGraphModel grid="1" page="1" gridSize="10" guides="1" tooltips="1" connect="1" arrows="1" fold="1" pageScale="1" pageWidth="827" pageHeight="1169" math="0" shadow="0">
      <root>
        <mxCell id="0" />
        <mxCell id="1" parent="0" />
        <mxCell id="lusuM_z9Xf96aL0ndlQV-1" value="" style="edgeStyle=orthogonalEdgeStyle;rounded=0;orthogonalLoop=1;jettySize=auto;html=1;align=center;" edge="1" parent="1" source="lusuM_z9Xf96aL0ndlQV-2" target="lusuM_z9Xf96aL0ndlQV-4">
          <mxGeometry relative="1" as="geometry" />
        </mxCell>
        <mxCell id="lusuM_z9Xf96aL0ndlQV-2" value="Mulai" style="ellipse;whiteSpace=wrap;html=1;" vertex="1" parent="1">
          <mxGeometry x="60" y="-1137.5" width="148.01" height="105" as="geometry" />
        </mxCell>
        <mxCell id="lusuM_z9Xf96aL0ndlQV-3" value="" style="edgeStyle=orthogonalEdgeStyle;rounded=0;orthogonalLoop=1;jettySize=auto;html=1;align=center;" edge="1" parent="1" source="lusuM_z9Xf96aL0ndlQV-4" target="lusuM_z9Xf96aL0ndlQV-6">
          <mxGeometry relative="1" as="geometry" />
        </mxCell>
        <mxCell id="lusuM_z9Xf96aL0ndlQV-4" value="&lt;font style=&quot;vertical-align: inherit;&quot;&gt;&lt;font style=&quot;vertical-align: inherit;&quot;&gt;Deklarasi Variabel&lt;/font&gt;&lt;/font&gt;&lt;div&gt;&lt;span style=&quot;background-color: initial;&quot; class=&quot;hljs-bullet&quot;&gt;&lt;font style=&quot;vertical-align: inherit;&quot;&gt;&lt;font style=&quot;vertical-align: inherit;&quot;&gt;- &lt;/font&gt;&lt;/font&gt;&lt;/span&gt;&lt;span style=&quot;background-color: initial;&quot;&gt;&lt;font style=&quot;vertical-align: inherit;&quot;&gt;&lt;font style=&quot;vertical-align: inherit;&quot;&gt;Pin untuk 7-Segmen (a, b, c, d, e, f, g)&lt;/font&gt;&lt;/font&gt;&lt;/span&gt;&lt;/div&gt;&lt;div&gt;&lt;span style=&quot;background-color: initial;&quot; class=&quot;hljs-bullet&quot;&gt;&lt;font style=&quot;vertical-align: inherit;&quot;&gt;&lt;font style=&quot;vertical-align: inherit;&quot;&gt;- &lt;/font&gt;&lt;/font&gt;&lt;/span&gt;&lt;span style=&quot;background-color: initial;&quot;&gt;&lt;font style=&quot;vertical-align: inherit;&quot;&gt;&lt;font style=&quot;vertical-align: inherit;&quot;&gt;Pin untuk Tampilan 7-Segmen (dig1,dig2)&lt;/font&gt;&lt;/font&gt;&lt;/span&gt;&lt;/div&gt;&lt;div&gt;&lt;span style=&quot;background-color: initial;&quot;&gt;&lt;font style=&quot;vertical-align: inherit;&quot;&gt;&lt;font style=&quot;vertical-align: inherit;&quot;&gt;-Pin Untuk Tombol (tombol)&lt;/font&gt;&lt;/font&gt;&lt;/span&gt;&lt;/div&gt;&lt;div&gt;&lt;span style=&quot;background-color: initial;&quot;&gt;&lt;font style=&quot;vertical-align: inherit;&quot;&gt;&lt;font style=&quot;vertical-align: inherit;&quot;&gt;int tombol1;&lt;/font&gt;&lt;/font&gt;&lt;/span&gt;&lt;/div&gt;&lt;div&gt;&lt;span style=&quot;background-color: initial;&quot;&gt;&lt;font style=&quot;vertical-align: inherit;&quot;&gt;&lt;font style=&quot;vertical-align: inherit;&quot;&gt;&lt;br&gt;&lt;/font&gt;&lt;/font&gt;&lt;/span&gt;&lt;/div&gt;" style="whiteSpace=wrap;html=1;align=center;" vertex="1" parent="1">
          <mxGeometry x="283" y="-1150" width="230" height="130" as="geometry" />
        </mxCell>
        <mxCell id="lusuM_z9Xf96aL0ndlQV-5" value="" style="edgeStyle=orthogonalEdgeStyle;rounded=0;orthogonalLoop=1;jettySize=auto;html=1;" edge="1" parent="1" source="lusuM_z9Xf96aL0ndlQV-6" target="lusuM_z9Xf96aL0ndlQV-8">
          <mxGeometry relative="1" as="geometry" />
        </mxCell>
        <mxCell id="lusuM_z9Xf96aL0ndlQV-6" value="&lt;font style=&quot;vertical-align: inherit;&quot;&gt;&lt;font style=&quot;vertical-align: inherit;&quot;&gt;&lt;font style=&quot;vertical-align: inherit;&quot;&gt;&lt;font style=&quot;vertical-align: inherit;&quot;&gt;Pinmode sebagai OUTPUT ( &lt;/font&gt;&lt;/font&gt;&lt;/font&gt;&lt;/font&gt;&lt;span class=&quot;hljs-selector-tag&quot;&gt;&lt;font style=&quot;vertical-align: inherit;&quot;&gt;&lt;font style=&quot;vertical-align: inherit;&quot;&gt;&lt;font style=&quot;vertical-align: inherit;&quot;&gt;&lt;font style=&quot;vertical-align: inherit;&quot;&gt;a&lt;/font&gt;&lt;/font&gt;&lt;/font&gt;&lt;/font&gt;&lt;/span&gt;&lt;font style=&quot;vertical-align: inherit;&quot;&gt;&lt;font style=&quot;vertical-align: inherit;&quot;&gt;&lt;font style=&quot;vertical-align: inherit;&quot;&gt;&lt;font style=&quot;vertical-align: inherit;&quot;&gt; , &lt;/font&gt;&lt;/font&gt;&lt;/font&gt;&lt;/font&gt;&lt;span class=&quot;hljs-selector-tag&quot;&gt;&lt;font style=&quot;vertical-align: inherit;&quot;&gt;&lt;font style=&quot;vertical-align: inherit;&quot;&gt;&lt;font style=&quot;vertical-align: inherit;&quot;&gt;&lt;font style=&quot;vertical-align: inherit;&quot;&gt;b&lt;/font&gt;&lt;/font&gt;&lt;/font&gt;&lt;/font&gt;&lt;/span&gt;&lt;font style=&quot;vertical-align: inherit;&quot;&gt;&lt;font style=&quot;vertical-align: inherit;&quot;&gt;&lt;font style=&quot;vertical-align: inherit;&quot;&gt;&lt;font style=&quot;vertical-align: inherit;&quot;&gt; , c, d, e, f, g, dig1, dig2)&lt;br&gt;Pinmode sebagai INPUT(tombol)&lt;br&gt;&lt;/font&gt;&lt;/font&gt;&lt;/font&gt;&lt;/font&gt;" style="whiteSpace=wrap;html=1;" vertex="1" parent="1">
          <mxGeometry x="580" y="-1135" width="230" height="100" as="geometry" />
        </mxCell>
        <mxCell id="lusuM_z9Xf96aL0ndlQV-49" value="" style="edgeStyle=orthogonalEdgeStyle;rounded=0;orthogonalLoop=1;jettySize=auto;html=1;" edge="1" parent="1" source="lusuM_z9Xf96aL0ndlQV-8" target="lusuM_z9Xf96aL0ndlQV-48">
          <mxGeometry relative="1" as="geometry" />
        </mxCell>
        <mxCell id="lusuM_z9Xf96aL0ndlQV-8" value="START LOOP" style="ellipse;whiteSpace=wrap;html=1;" vertex="1" parent="1">
          <mxGeometry x="635" y="-1010" width="120" height="80" as="geometry" />
        </mxCell>
        <mxCell id="lusuM_z9Xf96aL0ndlQV-9" value="" style="edgeStyle=orthogonalEdgeStyle;rounded=0;orthogonalLoop=1;jettySize=auto;html=1;" edge="1" parent="1" source="lusuM_z9Xf96aL0ndlQV-10" target="lusuM_z9Xf96aL0ndlQV-12">
          <mxGeometry relative="1" as="geometry" />
        </mxCell>
        <mxCell id="lusuM_z9Xf96aL0ndlQV-10" value="Deklarasi Variable&lt;br&gt;int x,z;" style="whiteSpace=wrap;html=1;" vertex="1" parent="1">
          <mxGeometry x="352.75" y="-820" width="190" height="80" as="geometry" />
        </mxCell>
        <mxCell id="lusuM_z9Xf96aL0ndlQV-11" value="" style="edgeStyle=orthogonalEdgeStyle;rounded=0;orthogonalLoop=1;jettySize=auto;html=1;" edge="1" parent="1" source="lusuM_z9Xf96aL0ndlQV-12">
          <mxGeometry relative="1" as="geometry">
            <mxPoint x="148" y="-710.4999999999998" as="targetPoint" />
          </mxGeometry>
        </mxCell>
        <mxCell id="lusuM_z9Xf96aL0ndlQV-12" value="FOR (X = 20;&amp;nbsp; X&amp;gt;= 0; X--)" style="whiteSpace=wrap;html=1;" vertex="1" parent="1">
          <mxGeometry x="53.26" y="-820" width="190" height="80" as="geometry" />
        </mxCell>
        <mxCell id="lusuM_z9Xf96aL0ndlQV-13" value="" style="edgeStyle=orthogonalEdgeStyle;rounded=0;orthogonalLoop=1;jettySize=auto;html=1;" edge="1" parent="1" source="lusuM_z9Xf96aL0ndlQV-15" target="lusuM_z9Xf96aL0ndlQV-19">
          <mxGeometry relative="1" as="geometry" />
        </mxCell>
        <mxCell id="lusuM_z9Xf96aL0ndlQV-14" value="" style="edgeStyle=orthogonalEdgeStyle;rounded=0;orthogonalLoop=1;jettySize=auto;html=1;" edge="1" parent="1" source="lusuM_z9Xf96aL0ndlQV-15" target="lusuM_z9Xf96aL0ndlQV-17">
          <mxGeometry relative="1" as="geometry" />
        </mxCell>
        <mxCell id="lusuM_z9Xf96aL0ndlQV-15" value="X &amp;gt;= 0&amp;nbsp;" style="rhombus;whiteSpace=wrap;html=1;" vertex="1" parent="1">
          <mxGeometry x="69" y="-730" width="158" height="130" as="geometry" />
        </mxCell>
        <mxCell id="lusuM_z9Xf96aL0ndlQV-16" style="edgeStyle=orthogonalEdgeStyle;rounded=0;orthogonalLoop=1;jettySize=auto;html=1;" edge="1" parent="1" source="lusuM_z9Xf96aL0ndlQV-17" target="lusuM_z9Xf96aL0ndlQV-23">
          <mxGeometry relative="1" as="geometry" />
        </mxCell>
        <mxCell id="lusuM_z9Xf96aL0ndlQV-17" value="NO" style="text;html=1;align=center;verticalAlign=middle;whiteSpace=wrap;rounded=0;" vertex="1" parent="1">
          <mxGeometry x="260.5" y="-680" width="60" height="30" as="geometry" />
        </mxCell>
        <mxCell id="lusuM_z9Xf96aL0ndlQV-18" value="" style="edgeStyle=orthogonalEdgeStyle;rounded=0;orthogonalLoop=1;jettySize=auto;html=1;" edge="1" parent="1" source="lusuM_z9Xf96aL0ndlQV-19" target="lusuM_z9Xf96aL0ndlQV-21">
          <mxGeometry relative="1" as="geometry" />
        </mxCell>
        <mxCell id="lusuM_z9Xf96aL0ndlQV-19" value="YES" style="text;html=1;align=center;verticalAlign=middle;whiteSpace=wrap;rounded=0;" vertex="1" parent="1">
          <mxGeometry x="117.5" y="-561" width="60" height="30" as="geometry" />
        </mxCell>
        <mxCell id="lusuM_z9Xf96aL0ndlQV-20" value="" style="edgeStyle=orthogonalEdgeStyle;rounded=0;orthogonalLoop=1;jettySize=auto;html=1;" edge="1" parent="1" source="lusuM_z9Xf96aL0ndlQV-21" target="lusuM_z9Xf96aL0ndlQV-25">
          <mxGeometry relative="1" as="geometry" />
        </mxCell>
        <mxCell id="lusuM_z9Xf96aL0ndlQV-21" value="&lt;br&gt;Hitung puluhan = x / &lt;span class=&quot;hljs-number&quot;&gt;10&lt;/span&gt; Hitung satuan = x % &lt;span class=&quot;hljs-number&quot;&gt;10&lt;/span&gt; &lt;div&gt;&lt;br/&gt;&lt;/div&gt;" style="whiteSpace=wrap;html=1;" vertex="1" parent="1">
          <mxGeometry x="260" y="-591.5" width="162" height="91" as="geometry" />
        </mxCell>
        <mxCell id="lusuM_z9Xf96aL0ndlQV-22" value="" style="edgeStyle=orthogonalEdgeStyle;rounded=0;orthogonalLoop=1;jettySize=auto;html=1;" edge="1" parent="1" source="lusuM_z9Xf96aL0ndlQV-23" target="lusuM_z9Xf96aL0ndlQV-25">
          <mxGeometry relative="1" as="geometry" />
        </mxCell>
        <mxCell id="lusuM_z9Xf96aL0ndlQV-23" value="&lt;br&gt;Hitung puluhan = x / &lt;span class=&quot;hljs-number&quot;&gt;10&lt;/span&gt; Hitung satuan = x % &lt;span class=&quot;hljs-number&quot;&gt;10&lt;/span&gt; &lt;div&gt;&lt;br/&gt;&lt;/div&gt;" style="whiteSpace=wrap;html=1;" vertex="1" parent="1">
          <mxGeometry x="564.5" y="-710.5" width="162" height="91" as="geometry" />
        </mxCell>
        <mxCell id="lusuM_z9Xf96aL0ndlQV-24" value="" style="edgeStyle=orthogonalEdgeStyle;rounded=0;orthogonalLoop=1;jettySize=auto;html=1;" edge="1" parent="1" source="lusuM_z9Xf96aL0ndlQV-25" target="lusuM_z9Xf96aL0ndlQV-27">
          <mxGeometry relative="1" as="geometry" />
        </mxCell>
        <mxCell id="lusuM_z9Xf96aL0ndlQV-25" value="&lt;div&gt;&lt;div style=&quot;background-color: rgb(255, 255, 254); font-family: Consolas, &amp;quot;Courier New&amp;quot;, monospace; font-size: 14px; line-height: 19px; white-space: pre;&quot;&gt;&lt;div&gt;&amp;nbsp; &amp;nbsp; &lt;span style=&quot;color: #e97366;&quot;&gt;digitalWrite&lt;/span&gt;(dig1, &lt;span style=&quot;color: #00979c;&quot;&gt;LOW&lt;/span&gt;);&lt;/div&gt;&lt;div&gt;&amp;nbsp; &amp;nbsp; &lt;span style=&quot;color: #e97366;&quot;&gt;digitalWrite&lt;/span&gt;(dig2, &lt;span style=&quot;color: #00979c;&quot;&gt;HIGH&lt;/span&gt;);&lt;/div&gt;&lt;/div&gt;&lt;/div&gt;" style="whiteSpace=wrap;html=1;" vertex="1" parent="1">
          <mxGeometry x="530" y="-591.5" width="230" height="91.5" as="geometry" />
        </mxCell>
        <mxCell id="lusuM_z9Xf96aL0ndlQV-26" value="" style="edgeStyle=orthogonalEdgeStyle;rounded=0;orthogonalLoop=1;jettySize=auto;html=1;" edge="1" parent="1" source="lusuM_z9Xf96aL0ndlQV-27" target="lusuM_z9Xf96aL0ndlQV-29">
          <mxGeometry relative="1" as="geometry" />
        </mxCell>
        <mxCell id="lusuM_z9Xf96aL0ndlQV-27" value="Panggil Fungsi angka(puluhan);" style="shape=process;whiteSpace=wrap;html=1;backgroundOutline=1;" vertex="1" parent="1">
          <mxGeometry x="567.5" y="-472" width="155" height="97.75" as="geometry" />
        </mxCell>
        <mxCell id="lusuM_z9Xf96aL0ndlQV-28" value="" style="edgeStyle=orthogonalEdgeStyle;rounded=0;orthogonalLoop=1;jettySize=auto;html=1;" edge="1" parent="1" source="lusuM_z9Xf96aL0ndlQV-29" target="lusuM_z9Xf96aL0ndlQV-31">
          <mxGeometry relative="1" as="geometry" />
        </mxCell>
        <mxCell id="lusuM_z9Xf96aL0ndlQV-29" value="Panggil Fungsi clear();" style="shape=process;whiteSpace=wrap;html=1;backgroundOutline=1;" vertex="1" parent="1">
          <mxGeometry x="332.5" y="-472" width="155" height="97.75" as="geometry" />
        </mxCell>
        <mxCell id="lusuM_z9Xf96aL0ndlQV-30" value="" style="edgeStyle=orthogonalEdgeStyle;rounded=0;orthogonalLoop=1;jettySize=auto;html=1;" edge="1" parent="1" source="lusuM_z9Xf96aL0ndlQV-31" target="lusuM_z9Xf96aL0ndlQV-33">
          <mxGeometry relative="1" as="geometry" />
        </mxCell>
        <mxCell id="lusuM_z9Xf96aL0ndlQV-31" value="&lt;div style=&quot;background-color: rgb(255, 255, 254); font-family: Consolas, &amp;quot;Courier New&amp;quot;, monospace; font-size: 14px; line-height: 19px; white-space: pre;&quot;&gt;&lt;div&gt;&amp;nbsp; &amp;nbsp; &lt;span style=&quot;color: #e97366;&quot;&gt;digitalWrite&lt;/span&gt;(dig1, &lt;span style=&quot;color: #00979c;&quot;&gt;HIGH&lt;/span&gt;);&lt;/div&gt;&lt;div&gt;&amp;nbsp; &amp;nbsp; &lt;span style=&quot;color: #e97366;&quot;&gt;digitalWrite&lt;/span&gt;(dig2, &lt;span style=&quot;color: #00979c;&quot;&gt;LOW&lt;/span&gt;);&lt;/div&gt;&lt;div&gt;&lt;/div&gt;&lt;/div&gt;" style="whiteSpace=wrap;html=1;" vertex="1" parent="1">
          <mxGeometry x="53" y="-464.89" width="240" height="83.53" as="geometry" />
        </mxCell>
        <mxCell id="lusuM_z9Xf96aL0ndlQV-32" value="" style="edgeStyle=orthogonalEdgeStyle;rounded=0;orthogonalLoop=1;jettySize=auto;html=1;" edge="1" parent="1" source="lusuM_z9Xf96aL0ndlQV-33" target="lusuM_z9Xf96aL0ndlQV-35">
          <mxGeometry relative="1" as="geometry" />
        </mxCell>
        <mxCell id="lusuM_z9Xf96aL0ndlQV-33" value="Panggil Fungsi angka(satuan);" style="shape=process;whiteSpace=wrap;html=1;backgroundOutline=1;" vertex="1" parent="1">
          <mxGeometry x="95" y="-309.75" width="155" height="97.75" as="geometry" />
        </mxCell>
        <mxCell id="lusuM_z9Xf96aL0ndlQV-34" value="" style="edgeStyle=orthogonalEdgeStyle;rounded=0;orthogonalLoop=1;jettySize=auto;html=1;" edge="1" parent="1" source="lusuM_z9Xf96aL0ndlQV-35" target="lusuM_z9Xf96aL0ndlQV-37">
          <mxGeometry relative="1" as="geometry" />
        </mxCell>
        <mxCell id="lusuM_z9Xf96aL0ndlQV-35" value="Panggil Fungsi clear();" style="shape=process;whiteSpace=wrap;html=1;backgroundOutline=1;" vertex="1" parent="1">
          <mxGeometry x="330.99" y="-309.75" width="155" height="97.75" as="geometry" />
        </mxCell>
        <mxCell id="lusuM_z9Xf96aL0ndlQV-36" value="" style="edgeStyle=orthogonalEdgeStyle;rounded=0;orthogonalLoop=1;jettySize=auto;html=1;" edge="1" parent="1" source="lusuM_z9Xf96aL0ndlQV-37" target="lusuM_z9Xf96aL0ndlQV-41">
          <mxGeometry relative="1" as="geometry" />
        </mxCell>
        <mxCell id="lusuM_z9Xf96aL0ndlQV-37" value="X = X - -" style="whiteSpace=wrap;html=1;" vertex="1" parent="1">
          <mxGeometry x="579.24" y="-312" width="154.5" height="100" as="geometry" />
        </mxCell>
        <mxCell id="lusuM_z9Xf96aL0ndlQV-38" value="" style="edgeStyle=orthogonalEdgeStyle;rounded=0;orthogonalLoop=1;jettySize=auto;html=1;" edge="1" parent="1" source="lusuM_z9Xf96aL0ndlQV-41" target="lusuM_z9Xf96aL0ndlQV-45">
          <mxGeometry relative="1" as="geometry" />
        </mxCell>
        <mxCell id="lusuM_z9Xf96aL0ndlQV-39" value="" style="edgeStyle=orthogonalEdgeStyle;rounded=0;orthogonalLoop=1;jettySize=auto;html=1;" edge="1" parent="1" source="lusuM_z9Xf96aL0ndlQV-41" target="lusuM_z9Xf96aL0ndlQV-43">
          <mxGeometry relative="1" as="geometry" />
        </mxCell>
        <mxCell id="lusuM_z9Xf96aL0ndlQV-40" value="" style="edgeStyle=orthogonalEdgeStyle;rounded=0;orthogonalLoop=1;jettySize=auto;html=1;" edge="1" parent="1" source="lusuM_z9Xf96aL0ndlQV-41" target="lusuM_z9Xf96aL0ndlQV-45">
          <mxGeometry relative="1" as="geometry" />
        </mxCell>
        <mxCell id="lusuM_z9Xf96aL0ndlQV-41" value="IF X == 0" style="rhombus;whiteSpace=wrap;html=1;" vertex="1" parent="1">
          <mxGeometry x="598" y="-170" width="113.51" height="100" as="geometry" />
        </mxCell>
        <mxCell id="lusuM_z9Xf96aL0ndlQV-42" value="" style="edgeStyle=orthogonalEdgeStyle;rounded=0;orthogonalLoop=1;jettySize=auto;html=1;" edge="1" parent="1" source="lusuM_z9Xf96aL0ndlQV-43" target="lusuM_z9Xf96aL0ndlQV-47">
          <mxGeometry relative="1" as="geometry" />
        </mxCell>
        <mxCell id="lusuM_z9Xf96aL0ndlQV-43" value="YES" style="text;html=1;align=center;verticalAlign=middle;whiteSpace=wrap;rounded=0;" vertex="1" parent="1">
          <mxGeometry x="504" y="-135" width="60" height="30" as="geometry" />
        </mxCell>
        <mxCell id="lusuM_z9Xf96aL0ndlQV-44" style="edgeStyle=orthogonalEdgeStyle;rounded=0;orthogonalLoop=1;jettySize=auto;html=1;" edge="1" parent="1" source="lusuM_z9Xf96aL0ndlQV-45" target="lusuM_z9Xf96aL0ndlQV-47">
          <mxGeometry relative="1" as="geometry" />
        </mxCell>
        <mxCell id="lusuM_z9Xf96aL0ndlQV-45" value="NO" style="text;html=1;align=center;verticalAlign=middle;whiteSpace=wrap;rounded=0;" vertex="1" parent="1">
          <mxGeometry x="624.75" y="-40" width="60" height="30" as="geometry" />
        </mxCell>
        <mxCell id="lusuM_z9Xf96aL0ndlQV-46" style="edgeStyle=orthogonalEdgeStyle;rounded=0;orthogonalLoop=1;jettySize=auto;html=1;" edge="1" parent="1" source="lusuM_z9Xf96aL0ndlQV-47" target="lusuM_z9Xf96aL0ndlQV-15">
          <mxGeometry relative="1" as="geometry">
            <Array as="points">
              <mxPoint x="30" y="-120" />
              <mxPoint x="30" y="-665" />
            </Array>
          </mxGeometry>
        </mxCell>
        <mxCell id="lusuM_z9Xf96aL0ndlQV-47" value="Panggil Fungsi clear();&lt;br&gt;&lt;br&gt;break;" style="shape=process;whiteSpace=wrap;html=1;backgroundOutline=1;" vertex="1" parent="1">
          <mxGeometry x="250" y="-165" width="204" height="90" as="geometry" />
        </mxCell>
        <mxCell id="lusuM_z9Xf96aL0ndlQV-51" value="" style="edgeStyle=orthogonalEdgeStyle;rounded=0;orthogonalLoop=1;jettySize=auto;html=1;" edge="1" parent="1" source="lusuM_z9Xf96aL0ndlQV-48" target="lusuM_z9Xf96aL0ndlQV-50">
          <mxGeometry relative="1" as="geometry" />
        </mxCell>
        <mxCell id="lusuM_z9Xf96aL0ndlQV-68" value="" style="edgeStyle=orthogonalEdgeStyle;rounded=0;orthogonalLoop=1;jettySize=auto;html=1;" edge="1" parent="1" source="lusuM_z9Xf96aL0ndlQV-48" target="lusuM_z9Xf96aL0ndlQV-67">
          <mxGeometry relative="1" as="geometry" />
        </mxCell>
        <mxCell id="lusuM_z9Xf96aL0ndlQV-48" value="&lt;div style=&quot;background-color: rgb(255, 255, 254); font-family: Consolas, &amp;quot;Courier New&amp;quot;, monospace; font-size: 14px; line-height: 19px; white-space: pre;&quot;&gt;tombol1 = &lt;span style=&quot;color: #e97366;&quot;&gt;digitalRead&lt;/span&gt;(tombol);&lt;/div&gt;" style="whiteSpace=wrap;html=1;" vertex="1" parent="1">
          <mxGeometry x="558" y="-912.5" width="252" height="65" as="geometry" />
        </mxCell>
        <mxCell id="lusuM_z9Xf96aL0ndlQV-60" value="" style="edgeStyle=orthogonalEdgeStyle;rounded=0;orthogonalLoop=1;jettySize=auto;html=1;" edge="1" parent="1" source="lusuM_z9Xf96aL0ndlQV-50" target="lusuM_z9Xf96aL0ndlQV-54">
          <mxGeometry relative="1" as="geometry" />
        </mxCell>
        <mxCell id="lusuM_z9Xf96aL0ndlQV-63" value="" style="edgeStyle=orthogonalEdgeStyle;rounded=0;orthogonalLoop=1;jettySize=auto;html=1;" edge="1" parent="1" source="lusuM_z9Xf96aL0ndlQV-50" target="lusuM_z9Xf96aL0ndlQV-55">
          <mxGeometry relative="1" as="geometry" />
        </mxCell>
        <mxCell id="lusuM_z9Xf96aL0ndlQV-50" value="iIF tombol1 == low" style="rhombus;whiteSpace=wrap;html=1;" vertex="1" parent="1">
          <mxGeometry x="382.5" y="-1012.5" width="130.5" height="100" as="geometry" />
        </mxCell>
        <mxCell id="lusuM_z9Xf96aL0ndlQV-59" value="" style="edgeStyle=orthogonalEdgeStyle;rounded=0;orthogonalLoop=1;jettySize=auto;html=1;" edge="1" parent="1" source="lusuM_z9Xf96aL0ndlQV-52" target="lusuM_z9Xf96aL0ndlQV-58">
          <mxGeometry relative="1" as="geometry" />
        </mxCell>
        <mxCell id="lusuM_z9Xf96aL0ndlQV-52" value="Panggil fungsi clear();" style="shape=process;whiteSpace=wrap;html=1;backgroundOutline=1;" vertex="1" parent="1">
          <mxGeometry x="100" y="-990" width="120" height="60" as="geometry" />
        </mxCell>
        <mxCell id="lusuM_z9Xf96aL0ndlQV-62" value="" style="edgeStyle=orthogonalEdgeStyle;rounded=0;orthogonalLoop=1;jettySize=auto;html=1;" edge="1" parent="1" source="lusuM_z9Xf96aL0ndlQV-54" target="lusuM_z9Xf96aL0ndlQV-52">
          <mxGeometry relative="1" as="geometry" />
        </mxCell>
        <mxCell id="lusuM_z9Xf96aL0ndlQV-54" value="YES" style="text;html=1;align=center;verticalAlign=middle;whiteSpace=wrap;rounded=0;" vertex="1" parent="1">
          <mxGeometry x="293" y="-977.5" width="60" height="30" as="geometry" />
        </mxCell>
        <mxCell id="lusuM_z9Xf96aL0ndlQV-66" value="" style="edgeStyle=orthogonalEdgeStyle;rounded=0;orthogonalLoop=1;jettySize=auto;html=1;" edge="1" parent="1" source="lusuM_z9Xf96aL0ndlQV-55" target="lusuM_z9Xf96aL0ndlQV-10">
          <mxGeometry relative="1" as="geometry" />
        </mxCell>
        <mxCell id="lusuM_z9Xf96aL0ndlQV-55" value="NO" style="text;html=1;align=center;verticalAlign=middle;whiteSpace=wrap;rounded=0;" vertex="1" parent="1">
          <mxGeometry x="417.75" y="-885" width="60" height="30" as="geometry" />
        </mxCell>
        <mxCell id="lusuM_z9Xf96aL0ndlQV-58" value="Kembali ke START LOOP" style="whiteSpace=wrap;html=1;" vertex="1" parent="1">
          <mxGeometry x="100" y="-900" width="120" height="60" as="geometry" />
        </mxCell>
        <mxCell id="lusuM_z9Xf96aL0ndlQV-71" value="" style="edgeStyle=orthogonalEdgeStyle;rounded=0;orthogonalLoop=1;jettySize=auto;html=1;" edge="1" parent="1" source="lusuM_z9Xf96aL0ndlQV-67" target="lusuM_z9Xf96aL0ndlQV-70">
          <mxGeometry relative="1" as="geometry" />
        </mxCell>
        <mxCell id="lusuM_z9Xf96aL0ndlQV-74" value="" style="edgeStyle=orthogonalEdgeStyle;rounded=0;orthogonalLoop=1;jettySize=auto;html=1;" edge="1" parent="1" source="lusuM_z9Xf96aL0ndlQV-67" target="lusuM_z9Xf96aL0ndlQV-73">
          <mxGeometry relative="1" as="geometry" />
        </mxCell>
        <mxCell id="lusuM_z9Xf96aL0ndlQV-67" value="IF tombol1 == HIGH" style="rhombus;whiteSpace=wrap;html=1;" vertex="1" parent="1">
          <mxGeometry x="636.24" y="-825" width="97.5" height="90" as="geometry" />
        </mxCell>
        <mxCell id="lusuM_z9Xf96aL0ndlQV-72" value="" style="edgeStyle=orthogonalEdgeStyle;rounded=0;orthogonalLoop=1;jettySize=auto;html=1;" edge="1" parent="1" source="lusuM_z9Xf96aL0ndlQV-70" target="lusuM_z9Xf96aL0ndlQV-10">
          <mxGeometry relative="1" as="geometry" />
        </mxCell>
        <mxCell id="lusuM_z9Xf96aL0ndlQV-70" value="YES" style="text;html=1;align=center;verticalAlign=middle;whiteSpace=wrap;rounded=0;" vertex="1" parent="1">
          <mxGeometry x="567.5" y="-795" width="60" height="30" as="geometry" />
        </mxCell>
        <mxCell id="lusuM_z9Xf96aL0ndlQV-76" value="" style="edgeStyle=orthogonalEdgeStyle;rounded=0;orthogonalLoop=1;jettySize=auto;html=1;" edge="1" parent="1" source="lusuM_z9Xf96aL0ndlQV-73" target="lusuM_z9Xf96aL0ndlQV-75">
          <mxGeometry relative="1" as="geometry" />
        </mxCell>
        <mxCell id="lusuM_z9Xf96aL0ndlQV-73" value="NO" style="text;html=1;align=center;verticalAlign=middle;whiteSpace=wrap;rounded=0;" vertex="1" parent="1">
          <mxGeometry x="755" y="-795" width="60" height="30" as="geometry" />
        </mxCell>
        <mxCell id="lusuM_z9Xf96aL0ndlQV-75" value="Kembali ke START LOOP" style="whiteSpace=wrap;html=1;" vertex="1" parent="1">
          <mxGeometry x="733.74" y="-750" width="90" height="50" as="geometry" />
        </mxCell>
      </root>
    </mxGraphModel>
  </diagram>
</mxfile>
